<svg width="48" height="48" viewBox="0 0 48 48" fill="none" xmlns="http://www.w3.org/2000/svg">
<g clip-path="url(#clip0)">
<path d="M21.1382 0C9.48291 0 0 9.48291 0 21.1382C0 32.7941 9.48291 42.2764 21.1382 42.2764C32.7941 42.2764 42.2764 32.7941 42.2764 21.1382C42.2764 9.48291 32.7941 0 21.1382 0ZM21.1382 38.374C11.6345 38.374 3.90244 30.642 3.90244 21.1383C3.90244 11.6346 11.6345 3.90244 21.1382 3.90244C30.6419 3.90244 38.3739 11.6345 38.3739 21.1382C38.3739 30.6419 30.6419 38.374 21.1382 38.374Z" fill="#F2B544"/>
<path d="M47.4283 44.6693L36.2413 33.4823C35.479 32.72 34.2445 32.72 33.4822 33.4823C32.72 34.2439 32.72 35.4797 33.4822 36.2413L44.6692 47.4283C45.0503 47.8094 45.5493 48 46.0488 48C46.5476 48 47.0471 47.8094 47.4283 47.4283C48.1906 46.6667 48.1906 45.4309 47.4283 44.6693Z" fill="#F2B544"/>
</g>
<defs>
<clipPath id="clip0">
<rect width="48" height="48" fill="white"/>
</clipPath>
</defs>
</svg>
